<svg xmlns="http://www.w3.org/2000/svg" width="32" height="32"><g color="#000" font-family="sans-serif" font-weight="400"><path style="line-height:normal;text-indent:0;text-align:start;text-decoration-line:none;text-decoration-style:solid;text-decoration-color:#000;text-transform:none;block-progression:tb;isolation:auto;mix-blend-mode:normal" fill="#f05542" fill-rule="evenodd" d="M-205.125-.138v6.67h1V.862h6.693v3.834h1V-.138h-8.693z" overflow="visible" transform="translate(217 6.638)"/><path style="line-height:normal;text-indent:0;text-align:start;text-decoration-line:none;text-decoration-style:solid;text-decoration-color:#000;text-transform:none;block-progression:tb;isolation:auto;mix-blend-mode:normal" fill="#2b4255" d="M-209.617-6.087c-.6.053-1.131.328-1.55.754-.193-.071-.376-.18-.583-.18-.787 0-1.347.584-1.564 1.303-.055-.007-.098-.053-.153-.053h-.002c-.493 0-.877.327-1.09.754-.794.164-1.441.78-1.441 1.621 0 .961.79 1.75 1.75 1.75h6.25c.96 0 1.75-.789 1.75-1.75 0-.544-.295-.982-.688-1.302.024-.139.063-.274.063-.415v-.002c0-1.258-.982-2.198-2.19-2.388-.32-.086-.402-.067-.552-.092zm.21.95c.852 0 1.532.679 1.532 1.53 0 .152-.022.303-.066.448a.5.5 0 0 0 .263.597c.255.121.428.37.428.674 0 .424-.326.75-.75.75h-6.25a.738.738 0 0 1-.75-.75c0-.424.326-.75.75-.75h.016a.5.5 0 0 0 .49-.398.278.278 0 0 1 .447-.166.5.5 0 0 0 .805-.465.743.743 0 0 1 .742-.846.75.75 0 0 1 .42.131.5.5 0 0 0 .685-.121 1.53 1.53 0 0 1 1.239-.635z" overflow="visible" transform="translate(217 6.638)"/><path style="line-height:normal;text-indent:0;text-align:start;text-decoration-line:none;text-decoration-style:solid;text-decoration-color:#000;text-transform:none;block-progression:tb;isolation:auto;mix-blend-mode:normal" fill="#2b4255" fill-rule="evenodd" d="M-211.125 8.362a.5.5 0 0 0-.5.5v16a.5.5 0 0 0 .5.5h6a.5.5 0 0 0 .5-.5v-16a.5.5 0 0 0-.5-.5h-6zm.5 1h5v15h-5v-15z" overflow="visible" transform="translate(217 6.638)"/><path style="line-height:normal;text-indent:0;text-align:start;text-decoration-line:none;text-decoration-style:solid;text-decoration-color:#000;text-transform:none;block-progression:tb;isolation:auto;mix-blend-mode:normal" fill="#2b4255" fill-rule="evenodd" d="M-212.125 6.362a.5.5 0 0 0-.5.5v2a.5.5 0 0 0 .5.5h8a.5.5 0 0 0 .5-.5v-2a.5.5 0 0 0-.5-.5h-8zm.5 1h7v1h-7v-1zm16-6v3h1v-3h-1zm-14 9v1h3v-1h-3zm0 2v1h3v-1h-3zm0 2v1h3v-1h-3zm0 2v1h3v-1h-3zm0 2v1h3v-1h-3zm0 2v1h3v-1h-3zm0 2v1h3v-1h-3z" overflow="visible" transform="translate(217 6.638)"/><path style="line-height:normal;text-indent:0;text-align:start;text-decoration-line:none;text-decoration-style:solid;text-decoration-color:#000;text-transform:none;block-progression:tb;isolation:auto;mix-blend-mode:normal" fill="#2b4255" d="M-188.447-5.566c-.445.001-.79.298-1.125.577-.158-.063-.31-.149-.48-.149-.554 0-.943.387-1.153.867-.009 0-.016-.01-.025-.01a.5.5 0 0 0-.002 0c-.254 0-.343.273-.526.43h-.01c-.743 0-1.357.612-1.357 1.356 0 .743.614 1.357 1.357 1.357h4.285c.744 0 1.358-.614 1.358-1.357 0-.34-.282-.533-.49-.772.03-.134.062-.269.062-.406a1.9 1.9 0 0 0-1.893-1.893.5.5 0 0 0-.002 0zm.002 1a.885.885 0 0 1 .853 1.153.5.5 0 0 0 .264.597.346.346 0 0 1 .203.32c0 .207-.15.358-.357.358h-4.286a.346.346 0 0 1-.357-.357c0-.207.151-.356.357-.356h.012a.5.5 0 0 0 .49-.4c.004-.02.014-.03.034-.03.008 0 .015.004.021.009a.5.5 0 0 0 .805-.465.35.35 0 0 1 .353-.4c.072 0 .14.022.2.062a.5.5 0 0 0 .685-.121.892.892 0 0 1 .723-.37z" overflow="visible" transform="translate(217 6.638)"/><path style="line-height:normal;text-indent:0;text-align:start;text-decoration-line:none;text-decoration-style:solid;text-decoration-color:#000;text-transform:none;block-progression:tb;isolation:auto;mix-blend-mode:normal" fill="#2b4255" fill-rule="evenodd" d="M-211.625.862v1h3v-1h-3zm-2 0v1h1v-1h-1zm-2 0v1h1v-1h-1zm13-4v1h1v-1h-1zm2 0v1h1v-1h-1zm2 0v1h1v-1h-1zm0-2v1h4v-1h-4zm5 0v1h1v-1h-1zm-4 9.5V7.12h1V5.362h3V7.12h1V4.362h-5z" overflow="visible" transform="translate(217 6.638)"/><path style="line-height:normal;text-indent:0;text-align:start;text-decoration-line:none;text-decoration-style:solid;text-decoration-color:#000;text-transform:none;block-progression:tb;isolation:auto;mix-blend-mode:normal" fill="#2b4255" fill-rule="evenodd" d="M-198.625 6.362v19h7v-19h-7zm1 1h5v17h-5v-17z" overflow="visible" transform="translate(217 6.638)"/><path style="line-height:normal;text-indent:0;text-align:start;text-decoration-line:none;text-decoration-style:solid;text-decoration-color:#000;text-transform:none;block-progression:tb;isolation:auto;mix-blend-mode:normal" fill="#2b4255" fill-rule="evenodd" d="M-196.625 8.362v1h1v-1h-1zm0 2v1h1v-1h-1zm0 2v1h1v-1h-1zm0 2v1h1v-1h-1zm0 2v1h1v-1h-1zm0 2v1h1v-1h-1zm0 2v1h1v-1h-1zm0 2v1h1v-1h-1zm2-14v1h1v-1h-1zm0 2v1h1v-1h-1zm0 2v1h1v-1h-1zm0 2v1h1v-1h-1zm0 2v1h1v-1h-1zm0 2v1h1v-1h-1zm0 2v1h1v-1h-1zm0 2v1h1v-1h-1z" overflow="visible" transform="translate(217 6.638)"/><path style="line-height:normal;text-indent:0;text-align:start;text-decoration-line:none;text-decoration-style:solid;text-decoration-color:#000;text-transform:none;block-progression:tb;isolation:auto;mix-blend-mode:normal" fill="#f05542" fill-rule="evenodd" d="M-214.625 24.362v1h26v-1h-26z" overflow="visible" transform="translate(217 6.638)"/></g></svg>