<svg xmlns="http://www.w3.org/2000/svg" width="32" height="32"><path fill="#34485c" d="M14 23.028v-5h3v4.995"/><path style="line-height:normal;text-indent:0;text-align:start;text-decoration-line:none;text-decoration-style:solid;text-decoration-color:#000;text-transform:none;block-progression:tb;isolation:auto;mix-blend-mode:normal" fill="#2b4255" fill-rule="evenodd" d="M-289 1090.975v9.5h1v-9.5h-1zm-12 0v9.5h1v-9.5h-1z" color="#000" font-family="sans-serif" font-weight="400" overflow="visible" transform="translate(310 -1090.862)"/><path fill="#f8b84e" d="M11.167 5.112h8.666L22 9.612l-2 8.5h-9l-2-8.5z"/><path fill="#34485c" d="M16.947 21.03 14 23.032a3.84 3.84 0 0 1 3.62 3.825 3.841 3.841 0 0 1-3.848 3.836 3.85 3.85 0 0 1-3.014-1.452 5.53 5.53 0 0 0 4.713 2.647 5.529 5.529 0 0 0 1.476-10.858z"/><path style="line-height:normal;text-indent:0;text-align:start;text-decoration-line:none;text-decoration-style:solid;text-decoration-color:#000;text-transform:none;block-progression:tb;isolation:auto;mix-blend-mode:normal" fill="#2b4255" fill-rule="evenodd" d="m-296.037 1095.975-4.121 2.752-.842 1.748.004.014 6.76-4.514h-1.801zm3.924 0-8.658 5.473.242 1.03 10.283-6.503h-1.867zm2.37.88-10.548 6.634.242 1.029 10.742-6.756-.435-.906zm.87 1.806-10.941 6.855.242 1.027 11.136-6.974-.437-.908zm.861 1.789-11.318 7.119.242 1.03 10.772-6.776.316-1.348-.012-.025zm-.607 2.66-9.168 5.865h1.86l6.978-4.467.33-1.398zm-.635 2.697-4.57 3.168h1.756l2.47-1.713.344-1.455z" color="#000" font-family="sans-serif" font-weight="400" overflow="visible" transform="translate(310 -1090.862)"/><path style="line-height:normal;text-indent:0;text-align:start;text-decoration-line:none;text-decoration-style:solid;text-decoration-color:#000;text-transform:none;block-progression:tb;isolation:auto;mix-blend-mode:normal" fill="#576d7e" d="M-292.502 1113.508a.5.5 0 0 0-.213.935 3.5 3.5 0 0 1 .725 5.506.5.5 0 1 0 .707.707 4.501 4.501 0 0 0-.932-7.078.5.5 0 0 0-.287-.07z" color="#000" font-family="sans-serif" font-weight="400" overflow="visible" transform="translate(310 -1090.862)"/><path fill="#2b4255" d="M15 18.112h1c.554 0 1 .223 1 .5s-.446.5-1 .5h-1c-.554 0-1-.223-1-.5s.446-.5 1-.5z"/></svg>