<svg xmlns="http://www.w3.org/2000/svg" viewBox="0 0 64 64"><path fill="#F15439" d="m32 40-7.123-6.877L3.586 54.414c.362.362.862.586 1.414.586h54c.552 0 1.052-.224 1.414-.586L39.123 33.123 32 40z"/><path fill="#FFF" d="M3 12v41c0 .552.224 1.052.586 1.414l21.291-21.291L3 12z"/><path fill="#399BB9" d="M59 9H5a2 2 0 0 0-2 2v1l21.877 21.123L25 33l-.123.123L32 40l7.123-6.877L39 33l.123.123L61 12v-1a2 2 0 0 0-2-2z"/><path fill="#FFF" d="M60.414 54.414c.362-.362.586-.862.586-1.414V12L39.123 33.123l21.291 21.291z"/><path d="M59 56H5c-1.654 0-3-1.346-3-3V11c0-1.654 1.346-3 3-3h54c1.654 0 3 1.346 3 3v42c0 1.654-1.346 3-3 3zM5 10c-.552 0-1 .449-1 1v42c0 .551.448 1 1 1h54c.552 0 1-.449 1-1V11c0-.551-.448-1-1-1H5z"/><path d="M32 41.39 2.306 12.719l1.388-1.438L32 38.61l28.306-27.329 1.388 1.438z"/><path d="m24.293 32.293 1.414 1.414-22 22-1.414-1.414zM39.707 32.293l22 22-1.414 1.414-22-22z"/></svg>